<svg width="723" height="971" viewBox="0 0 723 971" fill="none" xmlns="http://www.w3.org/2000/svg">
<path d="M206.855 134.115C206.855 131.315 206.855 129.915 207.4 128.845C207.879 127.904 208.644 127.14 209.585 126.66C210.655 126.115 212.055 126.115 214.855 126.115H592.454C595.255 126.115 596.655 126.115 597.724 126.66C598.665 127.14 599.43 127.904 599.909 128.845C600.454 129.915 600.454 131.315 600.454 134.115V962.882C600.454 965.682 600.454 967.082 599.909 968.152C599.43 969.093 598.665 969.857 597.724 970.337C596.655 970.882 595.255 970.882 592.454 970.882H214.855C212.055 970.882 210.655 970.882 209.585 970.337C208.644 969.857 207.879 969.093 207.4 968.152C206.855 967.082 206.855 965.682 206.855 962.882V134.115Z" fill="#055BA8"/>
<path d="M477.226 126.493C477.256 143.048 480.449 159.435 486.623 174.718C492.797 190.002 501.832 203.883 513.21 215.568C524.589 227.254 538.089 236.516 552.939 242.825C567.79 249.134 583.7 252.366 599.762 252.338L599.536 126.277L477.226 126.493Z" fill="#D5D5D5"/>
<path d="M206.892 970.44C261.763 970.453 314.39 948.847 353.195 910.376C392.001 871.905 413.806 819.721 413.814 765.302C413.822 710.883 392.032 658.688 353.238 620.199C314.444 581.71 261.823 560.08 206.952 560.067L206.922 765.254L206.892 970.44Z" fill="#D5D5D5"/>
</svg>
